# xmcd
#
# Track frame offsets:
#	150
#	14872
#	26300
#	41295
#
# Disc length: 680 seconds
#
# Revision: 1
# Processed by: cddbd v1.5.1PL0 Copyright (c) Steve Scherf et al.
# Submitted via: audiograbber 1.83.01
#
DISCID=2602a604
DTITLE=West Wood and Cathy Kimble - Fifty fifty
DYEAR=1900
DGENRE=
TTITLE0=Fifty Fifty
TTITLE1=That's what i like about you
TTITLE2=Every little thing
TTITLE3=Toeing the Mark and walking the line
EXTD=
EXTT0=
EXTT1=
EXTT2=
EXTT3=
PLAYORDER=
